<svg width="137" height="32" viewBox="0 0 137 32" fill="none" xmlns="http://www.w3.org/2000/svg">
<path fill-rule="evenodd" clip-rule="evenodd" d="M18.0959 17.8259L28.231 12.979L21.8772 19.7165L15.6651 25.9599L12.9642 22.9889L17.0748 18.8495L18.0959 17.8259Z" fill="#3D56A8"/>
<path fill-rule="evenodd" clip-rule="evenodd" d="M13.2029 28.0438L15.9185 30.6994L24.578 22.1474L31.1952 22.1474C32.1647 22.1474 32.9507 21.3614 32.9507 20.3918C32.9507 19.4222 32.1647 18.6362 31.1952 18.6362L22.6874 18.6362L13.2029 28.0438Z" fill="#3D56A8"/>
<path fill-rule="evenodd" clip-rule="evenodd" d="M7.10579 21.1802L4.4502 18.5826L10.191 12.9673L16.7455 6.21219L19.9866 9.18317L15.5021 12.9673L7.10579 21.1802Z" fill="#3D56A8"/>
<path fill-rule="evenodd" clip-rule="evenodd" d="M16.473 30.3897C15.6344 31.2282 14.2748 31.2282 13.4363 30.3897L12.7856 29.739L12.7025 22.1472L5.19381 22.1472L4.76 21.7134C3.92143 20.8748 3.92143 19.5153 4.76 18.6767L16.3835 18.68L16.473 30.3897Z" fill="#3D56A8"/>
<path d="M6.49445 22.1473L5.19307 22.1474L4.75926 21.7136C3.9207 20.875 3.9207 19.5155 4.75926 18.6769L9.96497 18.6768L6.49445 22.1473Z" fill="#3D56A8"/>
<path d="M13.002 28.6546L13.0019 29.956L13.4357 30.3898C14.2743 31.2284 15.6338 31.2284 16.4724 30.3898L16.4725 25.1841L13.002 28.6546Z" fill="#3D56A8"/>
<path fill-rule="evenodd" clip-rule="evenodd" d="M26.3856 9.96191L29.0412 12.6775L23.3004 18.5481L19.7164 21.519L17.2856 18.5481L21.5005 14.4086L26.3856 9.96191Z" fill="#3D56A8"/>
<path fill-rule="evenodd" clip-rule="evenodd" d="M19.5219 3.8645L16.9243 1.20892L9.18305 9.45313L1.89066 9.45313C0.846493 9.45313 3.07008e-05 10.2996 3.06356e-05 11.3438C3.05704e-05 12.3879 0.846491 13.2344 1.89065 13.2344L9.95852 13.2344L19.5219 3.8645Z" fill="#3D56A8"/>
<path fill-rule="evenodd" clip-rule="evenodd" d="M28.732 13.2314C29.5705 12.3928 29.5705 11.0333 28.732 10.1947L28.0812 9.54399L20.7033 9.46087L20.4895 1.95223L20.0557 1.51842C19.2171 0.679857 17.8575 0.679858 17.019 1.51842L17.0223 13.1419L28.732 13.2314Z" fill="#3D56A8"/>
<path d="M20.4892 3.2536L20.4893 1.95223L20.0555 1.51841C19.2169 0.679853 17.8574 0.679853 17.0188 1.51842L17.0187 6.72412L20.4892 3.2536Z" fill="#3D56A8"/>
<path d="M26.9964 9.76093L28.2978 9.7608L28.7316 10.1946C29.5701 11.0332 29.5701 12.3928 28.7316 13.2313L23.5259 13.2314L26.9964 9.76093Z" fill="#3D56A8"/>
<path d="M51.0289 24.9541H39.5094V8.14941H51.0289V11.5127H42.8727V14.876H48.3922V18.2393H42.8727V21.5908H51.0289V24.9541ZM64.7492 24.9541H60.8352L58.3391 21.1104L55.8196 24.9541H51.9055L56.4875 18.5205L51.9055 12.333H55.8196L58.3391 15.9307L60.8352 12.333H64.7492L60.1555 18.5205L64.7492 24.9541ZM77.6024 24.9541H73.6883L71.1922 21.1104L68.6727 24.9541H64.7586L69.3406 18.5205L64.7586 12.333H68.6727L71.1922 15.9307L73.6883 12.333H77.6024L73.0086 18.5205L77.6024 24.9541Z" fill="#3D56A8"/>
<path d="M82.9672 24.9541H79.768V15.5908H78.2094V12.4033H79.768V11.8057C79.768 11.0322 79.9125 10.3057 80.2016 9.62598C80.4985 8.94629 80.9008 8.35645 81.4086 7.85645C81.9242 7.34863 82.5219 6.9502 83.2016 6.66113C83.8813 6.36426 84.6078 6.21582 85.3813 6.21582H87.7836V9.40332H85.3813C85.0375 9.40332 84.7172 9.46582 84.4203 9.59082C84.1313 9.70801 83.8774 9.87598 83.6586 10.0947C83.4477 10.3057 83.2797 10.5596 83.1547 10.8564C83.0297 11.1455 82.9672 11.4619 82.9672 11.8057V12.4033H86.893V15.5908H82.9672V24.9541ZM100.461 18.5674C100.461 19.5049 100.293 20.3799 99.9571 21.1924C99.6211 21.9971 99.1641 22.6963 98.586 23.29C98.0078 23.876 97.3281 24.3408 96.5469 24.6846C95.7735 25.0205 94.9414 25.1885 94.0508 25.1885C93.168 25.1885 92.336 25.0205 91.5547 24.6846C90.7813 24.3408 90.1016 23.876 89.5156 23.29C88.9375 22.6963 88.4805 21.9971 88.1446 21.1924C87.8086 20.3799 87.6406 19.5049 87.6406 18.5674C87.6406 17.6143 87.8086 16.7314 88.1446 15.9189C88.4805 15.1064 88.9375 14.4072 89.5156 13.8213C90.1016 13.2275 90.7813 12.7627 91.5547 12.4268C92.336 12.0908 93.168 11.9229 94.0508 11.9229C94.9414 11.9229 95.7735 12.083 96.5469 12.4033C97.3281 12.7158 98.0078 13.165 98.586 13.751C99.1641 14.3291 99.6211 15.0283 99.9571 15.8486C100.293 16.6611 100.461 17.5674 100.461 18.5674ZM97.2383 18.5674C97.2383 18.0518 97.1524 17.5869 96.9805 17.1729C96.8164 16.751 96.5899 16.3916 96.3008 16.0947C96.0117 15.79 95.6719 15.5596 95.2813 15.4033C94.8985 15.2393 94.4883 15.1572 94.0508 15.1572C93.6133 15.1572 93.1992 15.2393 92.8086 15.4033C92.4258 15.5596 92.0899 15.79 91.8008 16.0947C91.5196 16.3916 91.2969 16.751 91.1328 17.1729C90.9688 17.5869 90.8867 18.0518 90.8867 18.5674C90.8867 19.0518 90.9688 19.501 91.1328 19.915C91.2969 20.3291 91.5196 20.6885 91.8008 20.9932C92.0899 21.2979 92.4258 21.54 92.8086 21.7197C93.1992 21.8916 93.6133 21.9775 94.0508 21.9775C94.4883 21.9775 94.8985 21.8955 95.2813 21.7314C95.6719 21.5674 96.0117 21.3369 96.3008 21.04C96.5899 20.7432 96.8164 20.3838 96.9805 19.9619C97.1524 19.54 97.2383 19.0752 97.2383 18.5674ZM105.58 24.9541H102.38V12.4033H103.154L104.209 13.8916C104.724 13.4229 105.31 13.0635 105.966 12.8135C106.623 12.5557 107.302 12.4268 108.005 12.4268H110.83V15.6143H108.005C107.67 15.6143 107.353 15.6768 107.056 15.8018C106.759 15.9268 106.502 16.0986 106.283 16.3174C106.064 16.5361 105.892 16.7939 105.767 17.0908C105.642 17.3877 105.58 17.7041 105.58 18.04V24.9541ZM123.202 14.8994L120.859 17.2549C120.741 16.9268 120.581 16.6338 120.378 16.376C120.175 16.1104 119.945 15.8877 119.687 15.708C119.437 15.5283 119.163 15.3916 118.866 15.2979C118.57 15.2041 118.265 15.1572 117.952 15.1572C117.515 15.1572 117.101 15.2471 116.71 15.4268C116.327 15.6064 115.991 15.8604 115.702 16.1885C115.421 16.5088 115.198 16.8916 115.034 17.3369C114.87 17.7822 114.788 18.2744 114.788 18.8135C114.788 19.251 114.87 19.6611 115.034 20.0439C115.198 20.4268 115.421 20.7627 115.702 21.0518C115.991 21.3408 116.327 21.5674 116.71 21.7314C117.101 21.8955 117.515 21.9775 117.952 21.9775C118.265 21.9775 118.566 21.9346 118.855 21.8486C119.144 21.7627 119.413 21.6416 119.663 21.4854C119.921 21.3213 120.148 21.126 120.343 20.8994C120.546 20.665 120.71 20.4072 120.835 20.126L123.179 22.4814C122.882 22.9033 122.538 23.2822 122.148 23.6182C121.765 23.9541 121.347 24.2393 120.894 24.4736C120.448 24.708 119.976 24.8838 119.476 25.001C118.984 25.126 118.476 25.1885 117.952 25.1885C117.07 25.1885 116.238 25.0244 115.456 24.6963C114.683 24.3604 114.003 23.9033 113.417 23.3252C112.839 22.7471 112.382 22.0713 112.046 21.2979C111.71 20.5244 111.542 19.6963 111.542 18.8135C111.542 17.8525 111.71 16.9541 112.046 16.1182C112.382 15.2822 112.839 14.5557 113.417 13.9385C114.003 13.3135 114.683 12.8213 115.456 12.4619C116.238 12.1025 117.07 11.9229 117.952 11.9229C118.476 11.9229 118.988 11.9893 119.488 12.1221C119.995 12.2549 120.476 12.4502 120.929 12.708C121.39 12.958 121.812 13.2666 122.195 13.6338C122.585 14.001 122.921 14.4229 123.202 14.8994ZM129.727 21.8838C129.852 21.9229 129.977 21.9502 130.102 21.9658C130.227 21.9736 130.352 21.9775 130.477 21.9775C130.79 21.9775 131.091 21.9346 131.38 21.8486C131.669 21.7627 131.938 21.6416 132.188 21.4854C132.446 21.3213 132.673 21.126 132.868 20.8994C133.071 20.665 133.235 20.4072 133.36 20.126L135.704 22.4814C135.407 22.9033 135.063 23.2822 134.673 23.6182C134.29 23.9541 133.872 24.2393 133.419 24.4736C132.973 24.708 132.501 24.8838 132.001 25.001C131.509 25.126 131.001 25.1885 130.477 25.1885C129.595 25.1885 128.763 25.0244 127.981 24.6963C127.208 24.3682 126.528 23.9111 125.942 23.3252C125.364 22.7393 124.907 22.0439 124.571 21.2393C124.235 20.4268 124.067 19.5361 124.067 18.5674C124.067 17.5752 124.235 16.6689 124.571 15.8486C124.907 15.0283 125.364 14.3291 125.942 13.751C126.528 13.1729 127.208 12.7236 127.981 12.4033C128.763 12.083 129.595 11.9229 130.477 11.9229C131.001 11.9229 131.513 11.9854 132.013 12.1104C132.513 12.2354 132.985 12.415 133.43 12.6494C133.884 12.8838 134.305 13.1729 134.696 13.5166C135.087 13.8525 135.43 14.2314 135.727 14.6533L129.727 21.8838ZM131.368 15.2861C131.22 15.2314 131.071 15.1963 130.923 15.1807C130.782 15.165 130.634 15.1572 130.477 15.1572C130.04 15.1572 129.626 15.2393 129.235 15.4033C128.852 15.5596 128.516 15.7861 128.227 16.083C127.946 16.3799 127.723 16.7393 127.559 17.1611C127.395 17.5752 127.313 18.0439 127.313 18.5674C127.313 18.6846 127.317 18.8174 127.325 18.9658C127.341 19.1143 127.36 19.2666 127.384 19.4229C127.415 19.5713 127.45 19.7158 127.489 19.8564C127.528 19.9971 127.579 20.1221 127.641 20.2314L131.368 15.2861Z" fill="#F5EDFF"/>
</svg>
